<svg width="165" height="169" viewBox="0 0 165 169" fill="none" xmlns="http://www.w3.org/2000/svg">
<rect width="165" height="169" fill="#F5F5F5"/>
<g id="video chat page" clip-path="url(#clip0_0_1)">
<rect width="1512" height="982" transform="translate(-673 -250)" fill="white"/>
<g id="Frame 33">
<g id="&#240;&#159;&#166;&#134; icon &#34;Alternate Mobile&#34;">
<path id="Vector" d="M154.564 51.4442L107.272 9.07839C101.677 4.06636 93.0718 4.53919 88.0598 10.134L9.38041 97.962C4.36839 103.557 4.84121 112.162 10.436 117.174L57.728 159.54C63.3229 164.552 71.9284 164.079 76.9404 158.485L155.62 70.6566C160.632 65.0618 160.159 56.4562 154.564 51.4442ZM40.1343 131.601C36.3974 128.254 36.0829 122.53 39.4306 118.793C42.7782 115.056 48.5019 114.742 52.2388 118.089C55.9757 121.437 56.2902 127.161 52.9426 130.898C49.5949 134.635 43.8712 134.949 40.1343 131.601ZM84.2067 129.983C82.9584 131.376 80.797 131.495 79.4036 130.247L37.1786 92.42C35.7851 91.1717 35.6664 89.0103 36.9147 87.6169L95.9242 21.7459C97.1725 20.3525 99.3339 20.2337 100.727 21.482L142.952 59.3086C144.346 60.5569 144.464 62.7183 143.216 64.1117L84.2067 129.983Z" fill="black"/>
</g>
</g>
</g>
<defs>
<clipPath id="clip0_0_1">
<rect width="1512" height="982" fill="white" transform="translate(-673 -250)"/>
</clipPath>
</defs>
</svg>
