<svg width="24" height="24" viewBox="0 0 24 24" fill="none" xmlns="http://www.w3.org/2000/svg">
<g clip-path="url(#clip0_131_217)">
<path fill-rule="evenodd" clip-rule="evenodd" d="M12.0001 14.122L17.3031 19.425C17.5845 19.7064 17.9661 19.8645 18.3641 19.8645C18.762 19.8645 19.1437 19.7064 19.4251 19.425C19.7065 19.1436 19.8646 18.762 19.8646 18.364C19.8646 17.9661 19.7065 17.5844 19.4251 17.303L14.1201 12L19.4241 6.697C19.5634 6.55767 19.6738 6.39227 19.7492 6.21025C19.8245 6.02823 19.8633 5.83315 19.8632 5.63615C19.8632 5.43915 19.8243 5.24409 19.7489 5.0621C19.6735 4.88012 19.5629 4.71477 19.4236 4.5755C19.2843 4.43624 19.1189 4.32578 18.9368 4.25043C18.7548 4.17509 18.5597 4.13633 18.3627 4.13638C18.1657 4.13642 17.9707 4.17527 17.7887 4.2507C17.6067 4.32613 17.4414 4.43667 17.3021 4.576L12.0001 9.879L6.69709 4.576C6.55879 4.43267 6.39333 4.31832 6.21036 4.23963C6.02739 4.16093 5.83058 4.11946 5.63141 4.11763C5.43224 4.11581 5.23471 4.15367 5.05033 4.229C4.86595 4.30434 4.69842 4.41564 4.55752 4.55641C4.41661 4.69718 4.30515 4.86461 4.22964 5.04891C4.15414 5.23322 4.11609 5.43072 4.11773 5.62989C4.11936 5.82906 4.16065 6.02591 4.23917 6.20895C4.3177 6.39199 4.43189 6.55757 4.57509 6.696L9.88009 12L4.57609 17.304C4.43289 17.4424 4.3187 17.608 4.24017 17.7911C4.16165 17.9741 4.12036 18.1709 4.11873 18.3701C4.11709 18.5693 4.15514 18.7668 4.23064 18.9511C4.30615 19.1354 4.41761 19.3028 4.55852 19.4436C4.69942 19.5844 4.86695 19.6957 5.05133 19.771C5.23571 19.8463 5.43324 19.8842 5.63241 19.8824C5.83158 19.8806 6.02839 19.8391 6.21136 19.7604C6.39433 19.6817 6.55979 19.5673 6.69809 19.424L12.0001 14.122Z" fill="#4759FF"/>
</g>
<defs>
<clipPath id="clip0_131_217">
<rect width="24" height="24" fill="white"/>
</clipPath>
</defs>
</svg>
