<svg width="24" height="24" viewBox="0 0 24 24" fill="none" xmlns="http://www.w3.org/2000/svg">
<path d="M14.5 10.33H21.17C21.3902 10.33 21.6013 10.2426 21.7569 10.0869C21.9126 9.93124 22 9.72013 22 9.5C22 7.51088 21.2099 5.60322 19.8033 4.1967C18.3968 2.79018 16.4892 2 14.5 2C14.2799 2 14.0688 2.08745 13.9131 2.2431C13.7575 2.39876 13.67 2.60987 13.67 2.83V9.5C13.67 9.72013 13.7575 9.93124 13.9131 10.0869C14.0688 10.2426 14.2799 10.33 14.5 10.33Z" fill="#4759FF"/>
<path d="M21.08 12H12.93C12.8105 12 12.6922 11.9764 12.5818 11.9307C12.4714 11.885 12.371 11.8179 12.2865 11.7334C12.202 11.6489 12.135 11.5486 12.0893 11.4382C12.0435 11.3278 12.02 11.2095 12.02 11.09V2.91996C12.0208 2.79025 11.9941 2.66184 11.9417 2.54316C11.8894 2.42449 11.8125 2.31822 11.7162 2.23134C11.6199 2.14446 11.5063 2.07894 11.3829 2.03906C11.2594 1.99918 11.129 1.98586 11 1.99996C9.12276 2.19929 7.34027 2.92593 5.85868 4.09585C4.3771 5.26576 3.25693 6.83116 2.62771 8.61102C1.9985 10.3909 1.88595 12.3125 2.30308 14.1536C2.7202 15.9948 3.64996 17.6802 4.98484 19.0151C6.31972 20.35 8.00519 21.2798 9.84633 21.6969C11.6875 22.114 13.6091 22.0015 15.3889 21.3723C17.1688 20.743 18.7342 19.6229 19.9041 18.1413C21.074 16.6597 21.8007 14.8772 22 13C22.0111 12.8726 21.9956 12.7443 21.9543 12.6233C21.9131 12.5023 21.8471 12.3912 21.7605 12.2971C21.674 12.203 21.5688 12.128 21.4516 12.0768C21.3344 12.0256 21.2079 11.9995 21.08 12Z" fill="#4759FF"/>
</svg>
