<svg width="32" height="32" viewBox="0 0 32 32" fill="none" xmlns="http://www.w3.org/2000/svg">
<path d="M10 11C11.0609 11 12.0783 10.5786 12.8284 9.82843C13.5786 9.07828 14 8.06087 14 7C14 5.93913 13.5786 4.92172 12.8284 4.17157C12.0783 3.42143 11.0609 3 10 3C8.93913 3 7.92172 3.42143 7.17157 4.17157C6.42143 4.92172 6 5.93913 6 7C6 8.06087 6.42143 9.07828 7.17157 9.82843C7.92172 10.5786 8.93913 11 10 11ZM2 15.5C2 14.837 2.26339 14.2011 2.73223 13.7322C3.20107 13.2634 3.83696 13 4.5 13H10.875C10.6264 13.6375 10.4992 14.3158 10.5 15C10.5 16.86 11.423 18.505 12.837 19.5H10.5C9.76873 19.4999 9.05142 19.7003 8.42606 20.0793C7.8007 20.4584 7.29121 21.0016 6.953 21.65C5.037 21.157 3.811 20.198 3.054 19.11C2 17.595 2 16.026 2 15.75V15.5ZM25.047 21.65C26.963 21.157 28.189 20.198 28.946 19.11C30 17.595 30 16.025 30 15.75V15.5C30 14.837 29.7366 14.2011 29.2678 13.7322C28.7989 13.2634 28.163 13 27.5 13H21.125C21.367 13.62 21.5 14.294 21.5 15C21.5 16.86 20.577 18.505 19.163 19.5H21.5C22.2313 19.4999 22.9486 19.7003 23.5739 20.0793C24.1993 20.4584 24.7088 21.0016 25.047 21.65ZM26 7C26 8.06087 25.5786 9.07828 24.8284 9.82843C24.0783 10.5786 23.0609 11 22 11C20.9391 11 19.9217 10.5786 19.1716 9.82843C18.4214 9.07828 18 8.06087 18 7C18 5.93913 18.4214 4.92172 19.1716 4.17157C19.9217 3.42143 20.9391 3 22 3C23.0609 3 24.0783 3.42143 24.8284 4.17157C25.5786 4.92172 26 5.93913 26 7ZM8 23.5C8 22.837 8.26339 22.2011 8.73223 21.7322C9.20107 21.2634 9.83696 21 10.5 21H21.5C21.8283 21 22.1534 21.0647 22.4567 21.1903C22.76 21.3159 23.0356 21.5001 23.2678 21.7322C23.4999 21.9644 23.6841 22.24 23.8097 22.5433C23.9353 22.8466 24 23.1717 24 23.5V23.75C24 24.025 24 25.595 22.946 27.11C21.846 28.691 19.756 30 16 30C12.245 30 10.154 28.691 9.054 27.11C8 25.595 8 24.026 8 23.75V23.5ZM16 19C17.0609 19 18.0783 18.5786 18.8284 17.8284C19.5786 17.0783 20 16.0609 20 15C20 13.9391 19.5786 12.9217 18.8284 12.1716C18.0783 11.4214 17.0609 11 16 11C14.9391 11 13.9217 11.4214 13.1716 12.1716C12.4214 12.9217 12 13.9391 12 15C12 16.0609 12.4214 17.0783 13.1716 17.8284C13.9217 18.5786 14.9391 19 16 19Z" fill="#4759FF"/>
</svg>
