<svg width="67" height="20" viewBox="0 0 67 20" fill="none" xmlns="http://www.w3.org/2000/svg">
<path d="M30.26 9.06C30.028 8.572 29.692 8.196 29.252 7.932C28.812 7.66 28.3 7.524 27.716 7.524C27.132 7.524 26.604 7.66 26.132 7.932C25.668 8.196 25.3 8.58 25.028 9.084C24.764 9.58 24.632 10.156 24.632 10.812C24.632 11.468 24.764 12.044 25.028 12.54C25.3 13.036 25.668 13.42 26.132 13.692C26.604 13.956 27.132 14.088 27.716 14.088C28.532 14.088 29.204 13.844 29.732 13.356C30.26 12.868 30.568 12.208 30.656 11.376H27.32V10.488H31.82V11.328C31.756 12.016 31.54 12.648 31.172 13.224C30.804 13.792 30.32 14.244 29.72 14.58C29.12 14.908 28.452 15.072 27.716 15.072C26.94 15.072 26.232 14.892 25.592 14.532C24.952 14.164 24.444 13.656 24.068 13.008C23.7 12.36 23.516 11.628 23.516 10.812C23.516 9.996 23.7 9.264 24.068 8.616C24.444 7.96 24.952 7.452 25.592 7.092C26.232 6.724 26.94 6.54 27.716 6.54C28.604 6.54 29.388 6.76 30.068 7.2C30.756 7.64 31.256 8.26 31.568 9.06H30.26ZM36.1318 15.108C35.5158 15.108 34.9558 14.968 34.4518 14.688C33.9558 14.408 33.5638 14.012 33.2758 13.5C32.9958 12.98 32.8558 12.38 32.8558 11.7C32.8558 11.028 32.9998 10.436 33.2878 9.924C33.5838 9.404 33.9838 9.008 34.4878 8.736C34.9918 8.456 35.5558 8.316 36.1798 8.316C36.8038 8.316 37.3678 8.456 37.8718 8.736C38.3758 9.008 38.7718 9.4 39.0598 9.912C39.3558 10.424 39.5038 11.02 39.5038 11.7C39.5038 12.38 39.3518 12.98 39.0478 13.5C38.7518 14.012 38.3478 14.408 37.8358 14.688C37.3238 14.968 36.7558 15.108 36.1318 15.108ZM36.1318 14.148C36.5238 14.148 36.8918 14.056 37.2358 13.872C37.5798 13.688 37.8558 13.412 38.0638 13.044C38.2798 12.676 38.3878 12.228 38.3878 11.7C38.3878 11.172 38.2838 10.724 38.0758 10.356C37.8678 9.988 37.5958 9.716 37.2598 9.54C36.9238 9.356 36.5598 9.264 36.1678 9.264C35.7678 9.264 35.3998 9.356 35.0638 9.54C34.7358 9.716 34.4718 9.988 34.2718 10.356C34.0718 10.724 33.9718 11.172 33.9718 11.7C33.9718 12.236 34.0678 12.688 34.2598 13.056C34.4598 13.424 34.7238 13.7 35.0518 13.884C35.3798 14.06 35.7398 14.148 36.1318 14.148ZM43.8076 15.108C43.1916 15.108 42.6316 14.968 42.1276 14.688C41.6316 14.408 41.2396 14.012 40.9516 13.5C40.6716 12.98 40.5316 12.38 40.5316 11.7C40.5316 11.028 40.6756 10.436 40.9636 9.924C41.2596 9.404 41.6596 9.008 42.1636 8.736C42.6676 8.456 43.2316 8.316 43.8556 8.316C44.4796 8.316 45.0436 8.456 45.5476 8.736C46.0516 9.008 46.4476 9.4 46.7356 9.912C47.0316 10.424 47.1796 11.02 47.1796 11.7C47.1796 12.38 47.0276 12.98 46.7236 13.5C46.4276 14.012 46.0236 14.408 45.5116 14.688C44.9996 14.968 44.4316 15.108 43.8076 15.108ZM43.8076 14.148C44.1996 14.148 44.5676 14.056 44.9116 13.872C45.2556 13.688 45.5316 13.412 45.7396 13.044C45.9556 12.676 46.0636 12.228 46.0636 11.7C46.0636 11.172 45.9596 10.724 45.7516 10.356C45.5436 9.988 45.2716 9.716 44.9356 9.54C44.5996 9.356 44.2356 9.264 43.8436 9.264C43.4436 9.264 43.0756 9.356 42.7396 9.54C42.4116 9.716 42.1476 9.988 41.9476 10.356C41.7476 10.724 41.6476 11.172 41.6476 11.7C41.6476 12.236 41.7436 12.688 41.9356 13.056C42.1356 13.424 42.3996 13.7 42.7276 13.884C43.0556 14.06 43.4156 14.148 43.8076 14.148ZM51.3274 8.316C51.8954 8.316 52.3914 8.44 52.8154 8.688C53.2474 8.936 53.5674 9.248 53.7754 9.624V8.424H54.8794V15.144C54.8794 15.744 54.7514 16.276 54.4954 16.74C54.2394 17.212 53.8714 17.58 53.3914 17.844C52.9194 18.108 52.3674 18.24 51.7354 18.24C50.8714 18.24 50.1514 18.036 49.5754 17.628C48.9994 17.22 48.6594 16.664 48.5554 15.96H49.6354C49.7554 16.36 50.0034 16.68 50.3794 16.92C50.7554 17.168 51.2074 17.292 51.7354 17.292C52.3354 17.292 52.8234 17.104 53.1994 16.728C53.5834 16.352 53.7754 15.824 53.7754 15.144V13.764C53.5594 14.148 53.2394 14.468 52.8154 14.724C52.3914 14.98 51.8954 15.108 51.3274 15.108C50.7434 15.108 50.2114 14.964 49.7314 14.676C49.2594 14.388 48.8874 13.984 48.6154 13.464C48.3434 12.944 48.2074 12.352 48.2074 11.688C48.2074 11.016 48.3434 10.428 48.6154 9.924C48.8874 9.412 49.2594 9.016 49.7314 8.736C50.2114 8.456 50.7434 8.316 51.3274 8.316ZM53.7754 11.7C53.7754 11.204 53.6754 10.772 53.4754 10.404C53.2754 10.036 53.0034 9.756 52.6594 9.564C52.3234 9.364 51.9514 9.264 51.5434 9.264C51.1354 9.264 50.7634 9.36 50.4274 9.552C50.0914 9.744 49.8234 10.024 49.6234 10.392C49.4234 10.76 49.3234 11.192 49.3234 11.688C49.3234 12.192 49.4234 12.632 49.6234 13.008C49.8234 13.376 50.0914 13.66 50.4274 13.86C50.7634 14.052 51.1354 14.148 51.5434 14.148C51.9514 14.148 52.3234 14.052 52.6594 13.86C53.0034 13.66 53.2754 13.376 53.4754 13.008C53.6754 12.632 53.7754 12.196 53.7754 11.7ZM57.8168 6.12V15H56.7248V6.12H57.8168ZM65.6779 11.46C65.6779 11.668 65.6659 11.888 65.6419 12.12H60.3859C60.4259 12.768 60.6459 13.276 61.0459 13.644C61.4539 14.004 61.9459 14.184 62.5219 14.184C62.9939 14.184 63.3859 14.076 63.6979 13.86C64.0179 13.636 64.2419 13.34 64.3699 12.972H65.5459C65.3699 13.604 65.0179 14.12 64.4899 14.52C63.9619 14.912 63.3059 15.108 62.5219 15.108C61.8979 15.108 61.3379 14.968 60.8419 14.688C60.3539 14.408 59.9699 14.012 59.6899 13.5C59.4099 12.98 59.2699 12.38 59.2699 11.7C59.2699 11.02 59.4059 10.424 59.6779 9.912C59.9499 9.4 60.3299 9.008 60.8179 8.736C61.3139 8.456 61.8819 8.316 62.5219 8.316C63.1459 8.316 63.6979 8.452 64.1779 8.724C64.6579 8.996 65.0259 9.372 65.2819 9.852C65.5459 10.324 65.6779 10.86 65.6779 11.46ZM64.5499 11.232C64.5499 10.816 64.4579 10.46 64.2739 10.164C64.0899 9.86 63.8379 9.632 63.5179 9.48C63.2059 9.32 62.8579 9.24 62.4739 9.24C61.9219 9.24 61.4499 9.416 61.0579 9.768C60.6739 10.12 60.4539 10.608 60.3979 11.232H64.5499Z" fill="#0B0B0E"/>
<path d="M18.1713 8.36775H17.5001V8.33317H10.0001V11.6665H14.7096C14.0226 13.6069 12.1763 14.9998 10.0001 14.9998C7.23883 14.9998 5.00008 12.7611 5.00008 9.99984C5.00008 7.23859 7.23883 4.99984 10.0001 4.99984C11.2746 4.99984 12.4342 5.48067 13.3171 6.26609L15.6742 3.909C14.1859 2.52192 12.1951 1.6665 10.0001 1.6665C5.398 1.6665 1.66675 5.39775 1.66675 9.99984C1.66675 14.6019 5.398 18.3332 10.0001 18.3332C14.6021 18.3332 18.3334 14.6019 18.3334 9.99984C18.3334 9.44109 18.2759 8.89567 18.1713 8.36775Z" fill="#FFC107"/>
<path d="M2.62744 6.12109L5.36536 8.129C6.10619 6.29484 7.90036 4.99984 9.99998 4.99984C11.2745 4.99984 12.4341 5.48067 13.317 6.26609L15.6741 3.909C14.1858 2.52192 12.195 1.6665 9.99998 1.6665C6.79911 1.6665 4.02328 3.47359 2.62744 6.12109Z" fill="#FF3D00"/>
<path d="M10 18.3331C12.1525 18.3331 14.1084 17.5094 15.5871 16.1698L13.008 13.9873C12.1432 14.645 11.0865 15.0007 10 14.9998C7.83255 14.9998 5.99213 13.6177 5.2988 11.689L2.5813 13.7827C3.96047 16.4815 6.7613 18.3331 10 18.3331Z" fill="#4CAF50"/>
<path d="M18.1713 8.36808H17.5V8.3335H10V11.6668H14.7096C14.3809 12.5903 13.7889 13.3973 13.0067 13.9881L13.0079 13.9872L15.5871 16.1697C15.4046 16.3356 18.3333 14.1668 18.3333 10.0002C18.3333 9.44141 18.2758 8.896 18.1713 8.36808Z" fill="#1976D2"/>
</svg>
