<svg width="57" height="57" viewBox="0 0 57 57" fill="none" xmlns="http://www.w3.org/2000/svg">
<path d="M28.586 13.836C20.5258 13.836 14.0244 20.3373 14.0244 28.3975C14.0244 36.4577 20.5258 42.959 28.586 42.959C36.6461 42.959 43.1475 36.4577 43.1475 28.3975C43.1475 20.3373 36.6461 13.836 28.586 13.836ZM28.586 37.8644C23.3773 37.8644 19.1191 33.6189 19.1191 28.3975C19.1191 23.1761 23.3646 18.9306 28.586 18.9306C33.8073 18.9306 38.0529 23.1761 38.0529 28.3975C38.0529 33.6189 33.7947 37.8644 28.586 37.8644ZM47.1396 13.2403C47.1396 15.1287 45.6188 16.6368 43.7431 16.6368C41.8548 16.6368 40.3467 15.116 40.3467 13.2403C40.3467 11.3647 41.8675 9.84392 43.7431 9.84392C45.6188 9.84392 47.1396 11.3647 47.1396 13.2403ZM56.7839 16.6875C56.5684 12.1378 55.5292 8.10769 52.1962 4.78731C48.8758 1.46692 44.8457 0.427721 40.296 0.199603C35.6069 -0.0665344 21.5523 -0.0665344 16.8632 0.199603C12.3262 0.415048 8.29614 1.45425 4.96309 4.77463C1.63003 8.09502 0.603502 12.1251 0.375384 16.6748C0.109247 21.3639 0.109247 35.4185 0.375384 40.1076C0.590829 44.6572 1.63003 48.6873 4.96309 52.0077C8.29614 55.3281 12.3136 56.3673 16.8632 56.5954C21.5523 56.8615 35.6069 56.8615 40.296 56.5954C44.8457 56.38 48.8758 55.3408 52.1962 52.0077C55.5165 48.6873 56.5558 44.6572 56.7839 40.1076C57.05 35.4185 57.05 21.3765 56.7839 16.6875ZM50.7261 45.1388C49.7376 47.6228 47.8239 49.5364 45.3273 50.5376C41.5887 52.0204 32.7174 51.6782 28.586 51.6782C24.4545 51.6782 15.5706 52.0077 11.8446 50.5376C9.36069 49.5491 7.44704 47.6354 6.44585 45.1388C4.96309 41.4002 5.30527 32.529 5.30527 28.3975C5.30527 24.266 4.97576 15.3821 6.44585 11.6562C7.43437 9.17224 9.34802 7.25858 11.8446 6.2574C15.5832 4.77463 24.4545 5.11681 28.586 5.11681C32.7174 5.11681 41.6014 4.78731 45.3273 6.2574C47.8112 7.24591 49.7249 9.15957 50.7261 11.6562C52.2088 15.3948 51.8667 24.266 51.8667 28.3975C51.8667 32.529 52.2088 41.4129 50.7261 45.1388Z" fill="black"/>
</svg>
