<svg width="57" height="47" viewBox="0 0 57 47" fill="none" xmlns="http://www.w3.org/2000/svg">
<path d="M51.1608 12.0279C51.1969 12.5325 51.1969 13.0372 51.1969 13.5418C51.1969 28.9332 39.4822 46.6677 18.071 46.6677C11.4746 46.6677 5.34692 44.7572 0.192383 41.4411C1.1296 41.5492 2.03065 41.5853 3.00393 41.5853C8.44673 41.5853 13.4571 39.747 17.4582 36.611C12.3397 36.5029 8.05029 33.1506 6.5724 28.5368C7.29337 28.6448 8.01423 28.717 8.77127 28.717C9.81655 28.717 10.862 28.5727 11.8351 28.3205C6.50039 27.2391 2.49921 22.5532 2.49921 16.894V16.7499C4.04911 17.615 5.85154 18.1557 7.76182 18.2277C4.62584 16.137 2.57133 12.5685 2.57133 8.5314C2.57133 6.3687 3.14795 4.38619 4.15729 2.65599C9.88856 9.72092 18.5035 14.3347 28.1636 14.8394C27.9834 13.9743 27.8753 13.0733 27.8753 12.1721C27.8753 5.75591 33.0659 0.529358 39.518 0.529358C42.8702 0.529358 45.898 1.93513 48.0248 4.20601C50.656 3.70139 53.1792 2.72811 55.4141 1.39446C54.5489 4.09794 52.7106 6.36881 50.2956 7.81053C52.6386 7.55834 54.9095 6.90937 57.0001 6.00833C55.4143 8.31515 53.4317 10.3697 51.1608 12.0279Z" fill="black"/>
</svg>
