<svg width="57" height="56" viewBox="0 0 57 56" fill="none" xmlns="http://www.w3.org/2000/svg">
<path d="M19.0008 44.5902C19.0008 44.8193 18.7374 45.0025 18.4052 45.0025C18.0273 45.0369 17.7639 44.8536 17.7639 44.5902C17.7639 44.3611 18.0273 44.1779 18.3594 44.1779C18.703 44.1435 19.0008 44.3268 19.0008 44.5902ZM15.4389 44.0748C15.3587 44.3039 15.5878 44.5673 15.9314 44.636C16.2291 44.7505 16.5727 44.636 16.6414 44.4069C16.7102 44.1779 16.4926 43.9145 16.149 43.8114C15.8512 43.7312 15.519 43.8457 15.4389 44.0748ZM20.5012 43.8801C20.169 43.9603 19.94 44.1779 19.9743 44.4413C20.0087 44.6704 20.3065 44.8193 20.6501 44.7391C20.9822 44.6589 21.2113 44.4413 21.1769 44.2122C21.1425 43.9946 20.8333 43.8457 20.5012 43.8801ZM28.0373 -0.00842285C12.1518 -0.00842285 0 12.0518 0 27.9373C0 40.6389 7.99431 51.5079 19.4131 55.3333C20.8791 55.5967 21.3945 54.6919 21.3945 53.9474C21.3945 53.2373 21.3601 49.3204 21.3601 46.9152C21.3601 46.9152 13.3429 48.6332 11.6593 43.5021C11.6593 43.5021 10.3537 40.1693 8.47534 39.3103C8.47534 39.3103 5.85257 37.5121 8.65859 37.5465C8.65859 37.5465 11.5104 37.7756 13.0795 40.5014C15.5878 44.9223 19.7911 43.651 21.4289 42.8951C21.6923 41.0626 22.4367 39.7913 23.2614 39.0354C16.8591 38.3253 10.3995 37.3976 10.3995 26.3797C10.3995 23.23 11.2699 21.6495 13.1024 19.6338C12.8046 18.8893 11.8311 15.8198 13.4002 11.8571C15.7939 11.1126 21.3029 14.9494 21.3029 14.9494C23.5935 14.308 26.0559 13.9759 28.4955 13.9759C30.935 13.9759 33.3974 14.308 35.6881 14.9494C35.6881 14.9494 41.197 11.1011 43.5907 11.8571C45.1598 15.8313 44.1863 18.8893 43.8885 19.6338C45.721 21.661 46.8434 23.2415 46.8434 26.3797C46.8434 37.432 40.0975 38.3139 33.6952 39.0354C34.7489 39.9402 35.6422 41.6582 35.6422 44.3497C35.6422 48.2094 35.6079 52.9854 35.6079 53.9245C35.6079 54.669 36.1347 55.5738 37.5893 55.3104C49.0424 51.5079 56.8077 40.6389 56.8077 27.9373C56.8077 12.0518 43.9229 -0.00842285 28.0373 -0.00842285ZM11.1325 39.4935C10.9836 39.6081 11.0179 39.8715 11.2126 40.0891C11.3959 40.2724 11.6593 40.3525 11.8082 40.2036C11.9571 40.0891 11.9227 39.8257 11.728 39.6081C11.5448 39.4248 11.2814 39.3446 11.1325 39.4935ZM9.89553 38.5658C9.81536 38.7147 9.92989 38.898 10.159 39.0125C10.3422 39.127 10.5713 39.0927 10.6514 38.9323C10.7316 38.7834 10.6171 38.6002 10.388 38.4857C10.159 38.4169 9.97571 38.4513 9.89553 38.5658ZM13.6064 42.6432C13.4231 42.792 13.4918 43.1356 13.7552 43.3533C14.0187 43.6167 14.3508 43.651 14.4997 43.4678C14.6486 43.3189 14.5799 42.9753 14.3508 42.7577C14.0988 42.4943 13.7552 42.4599 13.6064 42.6432ZM12.3007 40.9595C12.1174 41.0741 12.1174 41.3719 12.3007 41.6353C12.4839 41.8987 12.7932 42.0132 12.9421 41.8987C13.1253 41.7498 13.1253 41.452 12.9421 41.1886C12.7817 40.9252 12.4839 40.8107 12.3007 40.9595Z" fill="black"/>
</svg>
